<!--?xml version="1.0" standalone="no"?-->
              <svg id="sw-js-blob-svg" viewBox="0 0 100 100" xmlns="http://www.w3.org/2000/svg" version="1.1">
                    <defs> 
                        <linearGradient id="sw-gradient" x1="0" x2="1" y1="1" y2="0">
                            <stop id="stop1" stop-color="rgba(22.615, 230.175, 249.379, 1)" offset="0%"></stop>
                            <stop id="stop2" stop-color="rgba(51.237, 160.004, 251.656, 1)" offset="100%"></stop>
                        </linearGradient>
                    </defs>
                <path fill="url(#sw-gradient)" d="M27.6,-31.7C34.3,-27.2,37.4,-17.2,38.8,-7.1C40.3,2.9,40.1,13,35.7,20.6C31.2,28.1,22.6,33.2,13.4,36.4C4.2,39.6,-5.6,41,-11.8,36.8C-18.1,32.7,-20.7,23.1,-24.5,14.9C-28.2,6.8,-33.1,0,-33.5,-7.4C-34,-14.8,-30,-23,-23.7,-27.6C-17.4,-32.2,-8.7,-33.3,0.9,-34.3C10.4,-35.4,20.8,-36.3,27.6,-31.7Z" width="100%" height="100%" transform="translate(50 50)" stroke-width="0" style="transition: all 0.3s ease 0s;"></path>
              </svg>