<?xml version="1.0" standalone="no"?>
<!DOCTYPE svg PUBLIC "-//W3C//DTD SVG 20010904//EN"
 "http://www.w3.org/TR/2001/REC-SVG-20010904/DTD/svg10.dtd">
<svg version="1.0" xmlns="http://www.w3.org/2000/svg"
 width="800.000000pt" height="800.000000pt" viewBox="0 0 800.000000 800.000000"
 preserveAspectRatio="xMidYMid meet">

<g transform="translate(0.000000,800.000000) scale(0.100000,-0.100000)"
fill="#00000" stroke="none">
<path d="M2455 6203 c-517 -239 -942 -437 -945 -439 -2 -3 26 -492 63 -1087
38 -595 77 -1226 88 -1402 11 -176 21 -324 22 -329 2 -5 96 191 209 435 113
244 499 1076 858 1847 358 772 650 1405 648 1407 -2 2 -426 -193 -943 -432z"/>
<path d="M4634 6568 c19 -40 139 -300 268 -578 129 -278 499 -1075 823 -1772
324 -698 591 -1268 594 -1268 7 0 186 2809 180 2814 -2 2 -326 152 -719 334
-393 181 -818 378 -944 436 -126 58 -230 106 -232 106 -2 0 12 -33 30 -72z"/>
<path d="M3972 5159 c-25 -61 -633 -1537 -649 -1576 -4 -10 135 -13 676 -13
413 0 681 4 681 9 0 5 -149 371 -331 813 -182 442 -334 812 -338 822 -6 15
-14 4 -39 -55z"/>
<path d="M2831 2419 c-73 -176 -131 -322 -129 -323 20 -17 1293 -736 1301
-736 20 0 1297 733 1297 745 0 6 -58 150 -128 321 l-128 309 -1040 3 -1040 2
-133 -321z"/>
</g>
</svg>
