<?xml version="1.0" standalone="no"?>
<svg xmlns:xlink="http://www.w3.org/1999/xlink" id="wave" style="transform:rotate(180deg); transition: 0.3s" viewBox="0 0 1440 490" version="1.1" xmlns="http://www.w3.org/2000/svg"><defs><linearGradient id="sw-gradient-0" x1="0" x2="0" y1="1" y2="0"><stop stop-color="rgba(126.06, 193.851, 255, 1)" offset="0%"/><stop stop-color="rgba(164.931, 203.133, 255, 1)" offset="100%"/></linearGradient></defs><path style="transform:translate(0, 0px); opacity:1" fill="url(#sw-gradient-0)" d="M0,147L10,163.3C20,180,40,212,60,187.8C80,163,100,82,120,65.3C140,49,160,98,180,138.8C200,180,220,212,240,228.7C260,245,280,245,300,269.5C320,294,340,343,360,318.5C380,294,400,196,420,171.5C440,147,460,196,480,220.5C500,245,520,245,540,220.5C560,196,580,147,600,179.7C620,212,640,327,660,334.8C680,343,700,245,720,179.7C740,114,760,82,780,81.7C800,82,820,114,840,114.3C860,114,880,82,900,89.8C920,98,940,147,960,171.5C980,196,1000,196,1020,179.7C1040,163,1060,131,1080,106.2C1100,82,1120,65,1140,81.7C1160,98,1180,147,1200,179.7C1220,212,1240,229,1260,196C1280,163,1300,82,1320,98C1340,114,1360,229,1380,245C1400,261,1420,180,1430,138.8L1440,98L1440,490L1430,490C1420,490,1400,490,1380,490C1360,490,1340,490,1320,490C1300,490,1280,490,1260,490C1240,490,1220,490,1200,490C1180,490,1160,490,1140,490C1120,490,1100,490,1080,490C1060,490,1040,490,1020,490C1000,490,980,490,960,490C940,490,920,490,900,490C880,490,860,490,840,490C820,490,800,490,780,490C760,490,740,490,720,490C700,490,680,490,660,490C640,490,620,490,600,490C580,490,560,490,540,490C520,490,500,490,480,490C460,490,440,490,420,490C400,490,380,490,360,490C340,490,320,490,300,490C280,490,260,490,240,490C220,490,200,490,180,490C160,490,140,490,120,490C100,490,80,490,60,490C40,490,20,490,10,490L0,490Z"/></svg>